<svg width="100%" viewBox="0 0 680 280" role="img" xmlns="http://www.w3.org/2000/svg">
<title>FIFA World Cup 2026 Match Predictor</title>
<desc>Colourful banner with soccer ball, trophy, and symbols from the three host nations: USA, Canada and Mexico</desc>
<defs>
  <linearGradient id="sky" x1="0" y1="0" x2="0" y2="1">
    <stop offset="0%" stop-color="#0b1e3d"/>
    <stop offset="100%" stop-color="#1a3358"/>
  </linearGradient>
  <clipPath id="bc">
    <circle cx="340" cy="155" r="66"/>
  </clipPath>
</defs>

<rect width="680" height="280" fill="url(#sky)"/>

<rect x="0" y="238" width="680" height="42" fill="#1b4010"/>
<rect x="0" y="238" width="680" height="7" fill="#246116"/>
<ellipse cx="340" cy="238" rx="130" ry="18" fill="none" stroke="#246116" stroke-width="2.5"/>
<ellipse cx="340" cy="238" rx="190" ry="26" fill="none" stroke="#1b4010" stroke-width="1.5"/>

<rect x="30" y="52" width="140" height="9" rx="2" fill="#B22234"/>
<rect x="30" y="67" width="140" height="9" rx="2" fill="#f5f5f5"/>
<rect x="30" y="82" width="140" height="9" rx="2" fill="#B22234"/>
<rect x="30" y="97" width="140" height="9" rx="2" fill="#f5f5f5"/>
<rect x="30" y="112" width="140" height="9" rx="2" fill="#B22234"/>
<rect x="30" y="52" width="58" height="52" rx="2" fill="#3C3B6E"/>
<text x="59" y="73" font-size="14" text-anchor="middle" fill="#ffffff" font-family="serif">&#9733;&#9733;</text>
<text x="59" y="90" font-size="14" text-anchor="middle" fill="#ffffff" font-family="serif">&#9733;&#9733;&#9733;</text>
<text x="100" y="140" font-size="10" text-anchor="middle" fill="#8aa8cc" font-family="system-ui,sans-serif" font-weight="700" letter-spacing="3">USA</text>
<rect x="22" y="46" width="4" height="180" rx="2" fill="#B22234" fill-opacity="0.6"/>

<rect x="30" y="148" width="32" height="42" rx="1" fill="#FF0000"/>
<rect x="62" y="148" width="66" height="42" rx="0" fill="#f8f8f8"/>
<rect x="128" y="148" width="32" height="42" rx="1" fill="#FF0000"/>
<rect x="30" y="148" width="130" height="42" rx="1" fill="none" stroke="#bbbbbb" stroke-width="0.5"/>
<g transform="translate(95,169) scale(0.7)">
  <path d="M0,-27 L3.5,-17 L13,-20 L9,-11 L21,-7 L13,-2 L17,8 L8,4 L8,20 L-8,20 L-8,4 L-17,8 L-13,-2 L-21,-7 L-9,-11 L-13,-20 L-3.5,-17 Z" fill="#FF0000"/>
</g>
<text x="94" y="207" font-size="10" text-anchor="middle" fill="#c07070" font-family="system-ui,sans-serif" font-weight="700" letter-spacing="3">CANADA</text>

<rect x="506" y="48" width="38" height="130" rx="3" fill="#006847"/>
<rect x="547" y="48" width="38" height="130" rx="3" fill="#ececec"/>
<rect x="588" y="48" width="38" height="130" rx="3" fill="#CE1126"/>
<g transform="translate(566,105)">
  <rect x="-7" y="-38" width="14" height="72" rx="7" fill="#004d33"/>
  <rect x="-27" y="-16" width="24" height="11" rx="5" fill="#004d33"/>
  <rect x="-27" y="-32" width="11" height="22" rx="5" fill="#004d33"/>
  <rect x="3" y="-4" width="24" height="11" rx="5" fill="#004d33"/>
  <rect x="16" y="-22" width="11" height="22" rx="5" fill="#004d33"/>
</g>
<text x="566" y="198" font-size="10" text-anchor="middle" fill="#78b878" font-family="system-ui,sans-serif" font-weight="700" letter-spacing="3">MEXICO</text>
<rect x="628" y="46" width="4" height="150" rx="2" fill="#CE1126" fill-opacity="0.6"/>

<g transform="translate(340,62)">
  <circle cx="0" cy="0" r="30" fill="#cc0000" fill-opacity="0.12"/>
  <path d="M0,-27 L3.5,-17 L13,-20 L9,-11 L21,-7 L13,-2 L17,8 L8,4 L8,20 L-8,20 L-8,4 L-17,8 L-13,-2 L-21,-7 L-9,-11 L-13,-20 L-3.5,-17 Z" fill="#cc0000"/>
</g>

<circle cx="46" cy="200" r="3" fill="#FFD700" fill-opacity="0.7"/>
<circle cx="200" cy="44" r="3.5" fill="#FFD700" fill-opacity="0.6"/>
<circle cx="480" cy="42" r="3" fill="#FFD700" fill-opacity="0.6"/>
<circle cx="640" cy="205" r="3" fill="#FFD700" fill-opacity="0.6"/>
<circle cx="170" cy="205" r="2.5" fill="#B22234" fill-opacity="0.8"/>
<circle cx="510" cy="210" r="2.5" fill="#006847" fill-opacity="0.8"/>
<circle cx="240" cy="47" r="2.5" fill="#cc0000" fill-opacity="0.6"/>
<circle cx="430" cy="45" r="2.5" fill="#cc0000" fill-opacity="0.6"/>
<polygon points="195,170 197,163 199,170 206,170 201,174 203,181 195,177 187,181 189,174 184,170" fill="#FFD700" fill-opacity="0.65"/>
<polygon points="486,175 488,168 490,175 497,175 492,179 494,186 486,182 478,186 480,179 475,175" fill="#FFD700" fill-opacity="0.55"/>
<polygon points="150,75 151,71 152,75 156,75 153,77 154,81 150,79 146,81 147,77 144,75" fill="#f5f5f5" fill-opacity="0.5"/>
<polygon points="530,80 531,76 532,80 536,80 533,82 534,86 530,84 526,86 527,82 524,80" fill="#f5f5f5" fill-opacity="0.5"/>

<circle cx="340" cy="83" r="2.5" fill="#FFD700" fill-opacity="0.7"/>
<circle cx="376" cy="91" r="2" fill="#FFD700" fill-opacity="0.55"/>
<circle cx="304" cy="91" r="2" fill="#FFD700" fill-opacity="0.55"/>
<circle cx="398" cy="120" r="2" fill="#FFD700" fill-opacity="0.45"/>
<circle cx="282" cy="120" r="2" fill="#FFD700" fill-opacity="0.45"/>

<ellipse cx="343" cy="225" rx="57" ry="8" fill="#000000" fill-opacity="0.25"/>
<circle cx="340" cy="155" r="66" fill="#ffffff"/>
<path d="M274,155 C275,131 288,112 306,101 C315,96 327,98 332,109 C336,118 333,130 328,140 C324,151 316,162 310,172 C304,182 297,191 289,196 C279,190 273,174 274,155 Z" fill="#C62828" clip-path="url(#bc)"/>
<path d="M286,191 C294,202 304,211 318,217 C327,221 336,222 340,222 C349,222 358,219 364,214 C371,207 372,196 366,187 C361,178 351,173 340,175 C330,175 320,181 312,189 C306,195 297,194 286,191 Z" fill="#33A84B" clip-path="url(#bc)"/>
<polygon points="340,91 355,127 394,127 364,151 376,187 340,165 304,187 316,151 286,127 325,127" fill="#29B6F6" clip-path="url(#bc)"/>
<path d="M376,107 C386,113 396,122 402,134 C406,140 406,148 402,153 C396,158 386,157 379,153 C372,148 368,138 369,128 C369,119 373,113 376,107 Z" fill="#880E1E" clip-path="url(#bc)"/>
<circle cx="340" cy="155" r="66" fill="none" stroke="#d0d0d0" stroke-width="1"/>
<circle cx="340" cy="155" r="14" fill="#f0f0f0" stroke="#cccccc" stroke-width="0.8"/>
<path d="M336,149 L344,149 L344,161 Q340,166 336,161 Z" fill="#aaaaaa"/>
<line x1="336" y1="162" x2="344" y2="162" stroke="#aaaaaa" stroke-width="1.5"/>
<rect x="333" y="163" width="14" height="2.5" rx="1" fill="#aaaaaa"/>
<rect x="330" y="166" width="20" height="2.5" rx="1" fill="#aaaaaa"/>
<ellipse cx="322" cy="127" rx="15" ry="11" fill="#ffffff" fill-opacity="0.55"/>
<ellipse cx="319" cy="124" rx="6" ry="4" fill="#ffffff" fill-opacity="0.55"/>

<g transform="translate(445,135)">
  <polygon points="0,-56 3.5,-48 12,-47 6,-41 8,-33 0,-38 -8,-33 -6,-41 -12,-47 -3.5,-48" fill="#FFD700"/>
  <path d="M-20,-42 L-22,-16 L-14,-4 L-14,12 L14,12 L14,-4 L22,-16 L20,-42 Z" fill="#FFD700"/>
  <path d="M-20,-32 Q-38,-30 -35,-14 Q-32,-3 -22,-7" fill="none" stroke="#FFD700" stroke-width="5.5" stroke-linecap="round"/>
  <path d="M20,-32 Q38,-30 35,-14 Q32,-3 22,-7" fill="none" stroke="#FFD700" stroke-width="5.5" stroke-linecap="round"/>
  <rect x="-9" y="12" width="18" height="8" rx="2" fill="#FFD700"/>
  <rect x="-15" y="20" width="30" height="7" rx="2" fill="#FFD700"/>
  <rect x="-20" y="27" width="40" height="6" rx="2" fill="#FFD700"/>
  <path d="M-11,-34 L-7,-20 L-13,-9" stroke="#ffffff" stroke-width="2.5" fill="none" stroke-opacity="0.38" stroke-linecap="round"/>
</g>

<text x="340" y="30" font-size="13" font-weight="800" fill="#FFD700" text-anchor="middle" font-family="system-ui,-apple-system,sans-serif" letter-spacing="5">FIFA WORLD CUP 2026</text>
<text x="340" y="258" font-size="19" font-weight="800" fill="#ffffff" text-anchor="middle" font-family="system-ui,-apple-system,sans-serif" letter-spacing="7" fill-opacity="0.95">MATCH PREDICTOR</text>
</svg>
